<svg height="512" viewBox="0 0 512 512" width="512" xmlns="http://www.w3.org/2000/svg"><g><path d="m208 224h96a8 8 0 0 0 8-8v-64a8 8 0 0 0 -8-8h-96a8 8 0 0 0 -8 8v64a8 8 0 0 0 8 8zm8-64h80v48h-80z"/><path d="m472 296h-56v-136a88.1 88.1 0 0 0 -88-88v-16a48.051 48.051 0 0 0 -48-48h-48a48.051 48.051 0 0 0 -48 48v16a88.1 88.1 0 0 0 -88 88v136h-56a8 8 0 0 0 -8 8v104a48.051 48.051 0 0 0 48 48h16a48.051 48.051 0 0 0 48 48h224a48.051 48.051 0 0 0 48-48h16a48.051 48.051 0 0 0 48-48v-104a8 8 0 0 0 -8-8zm-376 144h-16a32.036 32.036 0 0 1 -32-32v-64h48zm0-112h-48v-16h48zm104-272a32.036 32.036 0 0 1 32-32h48a32.036 32.036 0 0 1 32 32v16h-112zm200 400a32.036 32.036 0 0 1 -32 32h-224a32.036 32.036 0 0 1 -32-32v-296a72.083 72.083 0 0 1 72-72h144a72.083 72.083 0 0 1 72 72zm64-48a32.036 32.036 0 0 1 -32 32h-16v-96h48zm0-80h-48v-16h48z"/><path d="m368 296h-224a8 8 0 0 0 -8 8v124a28.031 28.031 0 0 0 28 28h184a28.031 28.031 0 0 0 28-28v-124a8 8 0 0 0 -8-8zm-8 132a12.01 12.01 0 0 1 -12 12h-184a12.01 12.01 0 0 1 -12-12v-84h168v16a8 8 0 0 0 16 0v-16h24zm0-100h-208v-16h208z"/></g></svg>