<svg height="512" viewBox="0 0 512 512" width="512" xmlns="http://www.w3.org/2000/svg"><path d="m372 80h-4v-24a8 8 0 0 0 -8-8h-16.8a40.069 40.069 0 0 0 -39.2-32h-32a40.069 40.069 0 0 0 -39.2 32h-16.8a8 8 0 0 0 -8 8h-48v-40a8 8 0 0 0 -8-8h-32a8 8 0 0 0 -8 8v480a8 8 0 0 0 8 8h32a8 8 0 0 0 8-8v-40h48a8 8 0 0 0 8 8h16.8a40.069 40.069 0 0 0 39.2 32h32a40.069 40.069 0 0 0 39.2-32h16.8a8 8 0 0 0 8-8v-24h4a28.031 28.031 0 0 0 28-28v-296a28.031 28.031 0 0 0 -28-28zm-228 408h-16v-464h16zm128-456h32a24.044 24.044 0 0 1 22.63 16h-77.26a24.044 24.044 0 0 1 22.63-16zm-48 32h128v16h-128zm-16 376h-48v-368h48v8h-4a28.031 28.031 0 0 0 -28 28v296a28.031 28.031 0 0 0 28 28h4zm96 40h-32a24.044 24.044 0 0 1 -22.63-16h77.26a24.044 24.044 0 0 1 -22.63 16zm48-32h-128v-16h128zm32-44a12.01 12.01 0 0 1 -12 12h-168a12.01 12.01 0 0 1 -12-12v-13.14l192-29.54zm0-58.86-192 29.54v-31.82l192-29.54zm0-48-192 29.54v-23.82l192-29.54zm0-40-192 29.54v-31.82l192-29.54zm0-48-192 29.54v-23.82l192-29.54zm0-40-192 29.54v-31.82l192-29.54zm0-48-192 29.54v-42.68a12.01 12.01 0 0 1 12-12h168a12.01 12.01 0 0 1 12 12z"/></svg>