<svg height="512" viewBox="0 0 512 512" width="512" xmlns="http://www.w3.org/2000/svg"><path d="m496 200h-48a8 8 0 0 0 -8 8v8h-16v-8a24.032 24.032 0 0 0 -24-24h-192a24.032 24.032 0 0 0 -24 24v8h-8v-29a19.017 19.017 0 0 0 -19-19h-58a19.017 19.017 0 0 0 -19 19v29h-8v-104a8 8 0 0 0 -8-8h-48a8 8 0 0 0 -8 8v288a8 8 0 0 0 8 8h48a8 8 0 0 0 8-8v-32h113.38a24.031 24.031 0 0 0 22.62 16h192a24.031 24.031 0 0 0 22.62-16h17.38v32a8 8 0 0 0 8 8h48a8 8 0 0 0 8-8v-192a8 8 0 0 0 -8-8zm-440 192h-32v-272h32zm40-205a3.009 3.009 0 0 1 3-3h58a3.009 3.009 0 0 1 3 3v29h-64zm88 165h-112v-120h112zm224 8a8.011 8.011 0 0 1 -8 8h-192a8.011 8.011 0 0 1 -8-8v-16h208zm0-32h-208v-120a8.011 8.011 0 0 1 8-8h192a8.011 8.011 0 0 1 8 8zm32 24h-16v-120h16zm48 40h-32v-176h32z"/></svg>