<?xml version="1.0" encoding="UTF-8"?>
<svg xmlns="http://www.w3.org/2000/svg" width="512" height="512" viewBox="0 0 512 512"><g><path d="M496,144H464V64a48.051,48.051,0,0,0-48-48H96A48.051,48.051,0,0,0,48,64v80H16a8,8,0,0,0-8,8v80a8,8,0,0,0,8,8H48V368.29A28.043,28.043,0,0,0,24,396v8a28.043,28.043,0,0,0,24,27.71V468a28.031,28.031,0,0,0,28,28h24a28.031,28.031,0,0,0,28-28V432H384v36a28.031,28.031,0,0,0,28,28h24a28.031,28.031,0,0,0,28-28V431.71A28.043,28.043,0,0,0,488,404v-8a28.043,28.043,0,0,0-24-27.71V240h32a8,8,0,0,0,8-8V152A8,8,0,0,0,496,144ZM64,64A32.036,32.036,0,0,1,96,32H416a32.036,32.036,0,0,1,32,32V368H64ZM24,224V160H48v64Zm88,244a12.01,12.01,0,0,1-12,12H76a12.01,12.01,0,0,1-12-12V432h48Zm336,0a12.01,12.01,0,0,1-12,12H412a12.01,12.01,0,0,1-12-12V432h48Zm24-72v8a12.01,12.01,0,0,1-12,12H52a12.01,12.01,0,0,1-12-12v-8a12.01,12.01,0,0,1,12-12H460A12.01,12.01,0,0,1,472,396Zm16-172H464V160h24Z"/><path d="M344,272H168a8,8,0,0,0-7.938,8.992l8,64A8,8,0,0,0,176,352H336a8,8,0,0,0,7.938-7.008l8-64A8,8,0,0,0,344,272Zm-15.062,64H183.062l-6-48H334.938Z"/><path d="M112,352a40,40,0,1,0-40-40A40.045,40.045,0,0,0,112,352Zm0-64a24,24,0,1,1-24,24A24.028,24.028,0,0,1,112,288Z"/><path d="M400,272a40,40,0,1,0,40,40A40.045,40.045,0,0,0,400,272Zm0,64a24,24,0,1,1,24-24A24.028,24.028,0,0,1,400,336Z"/><path d="M80,256H432a8,8,0,0,0,8-8V72a8,8,0,0,0-8-8H80a8,8,0,0,0-8,8V248A8,8,0,0,0,80,256Zm8-16V104H424V240ZM88,80H424v8H88Z"/></g></svg>
