<svg height="512" viewBox="0 0 512 512" width="512" xmlns="http://www.w3.org/2000/svg"><g><path d="m240 136h-48a8 8 0 0 0 -8 8v48a8 8 0 0 0 8 8h48a8 8 0 0 0 8-8v-48a8 8 0 0 0 -8-8zm-8 48h-32v-32h32z"/><path d="m168 136h-48a8 8 0 0 0 -8 8v48a8 8 0 0 0 8 8h48a8 8 0 0 0 8-8v-48a8 8 0 0 0 -8-8zm-8 48h-32v-32h32z"/><path d="m96 136h-48a8 8 0 0 0 -8 8v48a8 8 0 0 0 8 8h48a8 8 0 0 0 8-8v-48a8 8 0 0 0 -8-8zm-8 48h-32v-32h32z"/><path d="m336 200h48a8 8 0 0 0 8-8v-48a8 8 0 0 0 -8-8h-48a8 8 0 0 0 -8 8v48a8 8 0 0 0 8 8zm8-48h32v32h-32z"/><path d="m312 136h-48a8 8 0 0 0 -8 8v48a8 8 0 0 0 8 8h48a8 8 0 0 0 8-8v-48a8 8 0 0 0 -8-8zm-8 48h-32v-32h32z"/><path d="m240 208h-48a8 8 0 0 0 -8 8v48a8 8 0 0 0 8 8h48a8 8 0 0 0 8-8v-48a8 8 0 0 0 -8-8zm-8 48h-32v-32h32z"/><path d="m168 208h-48a8 8 0 0 0 -8 8v48a8 8 0 0 0 8 8h48a8 8 0 0 0 8-8v-48a8 8 0 0 0 -8-8zm-8 48h-32v-32h32z"/><path d="m96 208h-48a8 8 0 0 0 -8 8v48a8 8 0 0 0 8 8h48a8 8 0 0 0 8-8v-48a8 8 0 0 0 -8-8zm-8 48h-32v-32h32z"/><path d="m336 272h48a8 8 0 0 0 8-8v-48a8 8 0 0 0 -8-8h-48a8 8 0 0 0 -8 8v48a8 8 0 0 0 8 8zm8-48h32v32h-32z"/><path d="m312 208h-48a8 8 0 0 0 -8 8v48a8 8 0 0 0 8 8h48a8 8 0 0 0 8-8v-48a8 8 0 0 0 -8-8zm-8 48h-32v-32h32z"/><path d="m240 280h-48a8 8 0 0 0 -8 8v48a8 8 0 0 0 8 8h48a8 8 0 0 0 8-8v-48a8 8 0 0 0 -8-8zm-8 48h-32v-32h32z"/><path d="m168 280h-48a8 8 0 0 0 -8 8v48a8 8 0 0 0 8 8h48a8 8 0 0 0 8-8v-48a8 8 0 0 0 -8-8zm-8 48h-32v-32h32z"/><path d="m96 280h-48a8 8 0 0 0 -8 8v48a8 8 0 0 0 8 8h48a8 8 0 0 0 8-8v-48a8 8 0 0 0 -8-8zm-8 48h-32v-32h32z"/><path d="m424 283.04v-207.04a28.031 28.031 0 0 0 -28-28h-44v-16a8 8 0 0 0 -8-8h-32a8 8 0 0 0 -8 8v16h-64v-16a8 8 0 0 0 -8-8h-32a8 8 0 0 0 -8 8v16h-64v-16a8 8 0 0 0 -8-8h-32a8 8 0 0 0 -8 8v16h-44a28.031 28.031 0 0 0 -28 28v280a28.031 28.031 0 0 0 28 28h259a104 104 0 1 0 129-100.96zm-104-243.04h16v32h-16zm-112 0h16v32h-16zm-112 0h16v32h-16zm-72 36a12.01 12.01 0 0 1 12-12h44v16a8 8 0 0 0 8 8h32a8 8 0 0 0 8-8v-16h64v16a8 8 0 0 0 8 8h32a8 8 0 0 0 8-8v-16h64v16a8 8 0 0 0 8 8h32a8 8 0 0 0 8-8v-16h44a12.01 12.01 0 0 1 12 12v28h-384zm12 292a12.01 12.01 0 0 1 -12-12v-236h384v160.39c-2.97-.25-5.97-.39-9-.39a104.16 104.16 0 0 0 -102.77 88zm363 104a88.1 88.1 0 0 1 -88-88q0-3.6.29-7.12a.86.86 0 0 0 .01-.16 88 88 0 1 1 87.7 95.28z"/><path d="m424 376h-16v-48a8 8 0 0 0 -16 0v56a8 8 0 0 0 8 8h24a8 8 0 0 0 0-16z"/></g></svg>