<svg height="512" viewBox="0 0 512 512" width="512" xmlns="http://www.w3.org/2000/svg"><g><path d="m476 120h-119.06l-29.78-59.58a8.011 8.011 0 0 0 -7.16-4.42h-128a8.011 8.011 0 0 0 -7.16 4.42l-29.78 59.58h-35.06v-16a8 8 0 0 0 -8-8h-8v-16a8 8 0 0 0 -8-8h-32a8 8 0 0 0 -8 8v16h-8a8 8 0 0 0 -8 8v16h-4a28.031 28.031 0 0 0 -28 28v280a28.031 28.031 0 0 0 28 28h440a28.031 28.031 0 0 0 28-28v-280a28.031 28.031 0 0 0 -28-28zm-279.06-48h118.12l24 48h-166.12zm-124.94 16h16v8h-16zm-16 24h48v8h-48zm432 316a12.01 12.01 0 0 1 -12 12h-440a12.01 12.01 0 0 1 -12-12v-280a12.01 12.01 0 0 1 12-12h440a12.01 12.01 0 0 1 12 12z"/><path d="m256 144c-79.4 0-144 64.6-144 144s64.6 144 144 144 144-64.6 144-144-64.6-144-144-144zm0 272a128 128 0 1 1 128-128 128.144 128.144 0 0 1 -128 128z"/><path d="m256 176a112 112 0 1 0 112 112 112.127 112.127 0 0 0 -112-112zm0 208a96 96 0 1 1 96-96 96.108 96.108 0 0 1 -96 96z"/><path d="m464 152h-72a8 8 0 0 0 -8 8v32a8 8 0 0 0 8 8h72a8 8 0 0 0 8-8v-32a8 8 0 0 0 -8-8zm-8 32h-56v-16h56z"/><path d="m80 160h-32a8 8 0 0 0 -8 8v240a8 8 0 0 0 8 8h32a8 8 0 0 0 8-8v-240a8 8 0 0 0 -8-8zm-8 240h-16v-224h16z"/><path d="m225 232a40 40 0 1 0 40 40 40.045 40.045 0 0 0 -40-40zm0 64a24 24 0 1 1 24-24 24.028 24.028 0 0 1 -24 24z"/><path d="m288 304a24 24 0 1 0 24 24 24.027 24.027 0 0 0 -24-24zm0 32a8 8 0 1 1 8-8 8.009 8.009 0 0 1 -8 8z"/></g></svg>