<?xml version="1.0" encoding="UTF-8"?>
<svg xmlns="http://www.w3.org/2000/svg" width="512" height="512" viewBox="0 0 512 512"><g><path d="M500.68,89.51a8.027,8.027,0,0,0-7.21-1.1l-24,8A8,8,0,0,0,464,104H416V80h32a8,8,0,0,0,6.86-3.88l24-40A8,8,0,0,0,472,24H88a8,8,0,0,0-8,8V96a8,8,0,0,0,8,8v80a40.04,40.04,0,0,0,40,40H240v16a8,8,0,0,0,8,8h16v94.46a48.307,48.307,0,0,0-17.65,17.72,7.034,7.034,0,0,0-.76.19L104,405.08V400a24.032,24.032,0,0,0-24-24H72v-8a8,8,0,0,0-8-8H16a8,8,0,0,0-8,8V480a8,8,0,0,0,8,8H64a8,8,0,0,0,8-8v-8h8a24.038,24.038,0,0,0,23.21-17.89l143.67-45.37A47.988,47.988,0,1,0,312,342.46V248h16a8,8,0,0,0,8-8V224h72a8,8,0,0,0,8-8V200h48a8,8,0,0,0,5.47,7.59l24,8A7.884,7.884,0,0,0,496,216a8,8,0,0,0,8-8V96A8.012,8.012,0,0,0,500.68,89.51ZM56,472H24V376H56Zm32-24a8.011,8.011,0,0,1-8,8H72V392h8a8.011,8.011,0,0,1,8,8Zm152-53.86L104,437.08V421.86l136-42.94ZM144,208H128a24.032,24.032,0,0,1-24-24V104h40ZM320,384a32,32,0,1,1-32-32A32.042,32.042,0,0,1,320,384Zm-40-48V248h16v88Zm40-104H256v-8h64Zm80-24H160V104h96a8,8,0,0,0,7.59-5.47L269.77,80H400ZM264,64a8,8,0,0,0-7.59,5.47L250.23,88H96V40H457.87l-14.4,24ZM464,184H416V120h48Zm24,12.9-8-2.67V109.77l8-2.67Z"/><path d="M384,112H288a8,8,0,0,0-8,8v56a8,8,0,0,0,8,8h96a8,8,0,0,0,8-8V120A8,8,0,0,0,384,112Zm-8,56H296V128h80Z"/><path d="M288,360a24,24,0,1,0,24,24A24.028,24.028,0,0,0,288,360Zm0,32a8,8,0,1,1,8-8A8.009,8.009,0,0,1,288,392Z"/></g></svg>
