<svg height="512" viewBox="0 0 512 512" width="512" xmlns="http://www.w3.org/2000/svg"><g><path d="m216 464h-80a8 8 0 0 0 0 16h80a8 8 0 0 0 0-16z"/><path d="m144 192a8 8 0 0 0 -8 8v32a8 8 0 0 0 8 8h64a8 8 0 0 0 8-8v-32a8 8 0 0 0 -8-8zm56 32h-48v-16h48z"/><path d="m208 248h-64a8 8 0 0 0 -8 8v32a8 8 0 0 0 8 8h64a8 8 0 0 0 8-8v-32a8 8 0 0 0 -8-8zm-8 32h-48v-16h48z"/><path d="m208 304h-64a8 8 0 0 0 -8 8v32a8 8 0 0 0 8 8h64a8 8 0 0 0 8-8v-32a8 8 0 0 0 -8-8zm-8 32h-48v-16h48z"/><path d="m444 112a20.02 20.02 0 0 0 -20 20v28h-16v-28a20 20 0 0 0 -40 0v80a28.043 28.043 0 0 0 24 27.71v156.29a4 4 0 0 1 -4 4h-44v-16a8 8 0 0 0 -8-8h-16v-340a28.031 28.031 0 0 0 -28-28h-232a28.031 28.031 0 0 0 -28 28v440a28.031 28.031 0 0 0 28 28h232a28.031 28.031 0 0 0 28-28v-4h16a8 8 0 0 0 8-8v-16h48a48.051 48.051 0 0 0 48-48v-160.29a28.043 28.043 0 0 0 24-27.71v-80a20.02 20.02 0 0 0 -20-20zm-230.25-88-4 16h-67.5l-4-16zm90.25 452a12.01 12.01 0 0 1 -12 12h-232a12.01 12.01 0 0 1 -12-12v-440a12.01 12.01 0 0 1 12-12h61.75l6.49 25.94a8 8 0 0 0 7.76 6.06h80a8 8 0 0 0 7.76-6.06l6.49-25.94h61.75a12.01 12.01 0 0 1 12 12zm24-20h-8v-64h8zm56-324a4 4 0 0 1 8 0v28h-8zm40 268a32.036 32.036 0 0 1 -32 32h-48v-16h44a20.02 20.02 0 0 0 20-20v-156h16zm24-188a12.01 12.01 0 0 1 -12 12h-40a12.01 12.01 0 0 1 -12-12v-36h64zm0-52h-8v-28a4 4 0 0 1 8 0z"/><path d="m232 168h-16v-24a8 8 0 0 0 -8-8h-64a8 8 0 0 0 -8 8v24h-16a8 8 0 0 0 -8 8v192a8 8 0 0 0 8 8h112a8 8 0 0 0 8-8v-192a8 8 0 0 0 -8-8zm-80-16h48v16h-48zm72 208h-96v-176h96z"/></g></svg>