<svg height="512" viewBox="0 0 512 512" width="512" xmlns="http://www.w3.org/2000/svg"><g><path d="m256 48c-114.69 0-208 93.31-208 208s93.31 208 208 208 208-93.31 208-208-93.31-208-208-208zm0 400c-105.87 0-192-86.13-192-192s86.13-192 192-192 192 86.13 192 192-86.13 192-192 192z"/><path d="m431.36 80.64a248 248 0 1 0 -350.72 350.72 248 248 0 1 0 350.72-350.72zm-11.31 339.41a232 232 0 0 1 -328.1-328.1 232 232 0 0 1 328.1 328.1z"/><path d="m264 252.687v-108.687a8 8 0 0 0 -16 0v112a8 8 0 0 0 2.343 5.657l48 48a8 8 0 0 0 11.314-11.314z"/><path d="m120 224h-24a8 8 0 0 0 0 16h16v5.333l-22.4 29.867a8 8 0 0 0 6.4 12.8h24a8 8 0 0 0 0-16h-8l14.4-19.2a8 8 0 0 0 1.6-4.8v-16a8 8 0 0 0 -8-8z"/><path d="m176 232v48a8 8 0 0 1 -16 0v-16h-16a8 8 0 0 1 -8-8v-24a8 8 0 0 1 16 0v16h8v-16a8 8 0 0 1 16 0z"/><path d="m216 248h-16v-16a8 8 0 0 0 -16 0v48a8 8 0 0 0 16 0v-16h8v16a8 8 0 0 0 16 0v-24a8 8 0 0 0 -8-8z"/></g></svg>