<svg height="512" viewBox="0 0 512 512" width="512" xmlns="http://www.w3.org/2000/svg"><g><path d="m496 176h-40a8 8 0 0 0 -8 8v8h-28.69l-21.65-21.66a8.008 8.008 0 0 0 -5.66-2.34h-16v-20a28.031 28.031 0 0 0 -28-28h-312a28.031 28.031 0 0 0 -28 28v216a28.031 28.031 0 0 0 28 28h312a28.031 28.031 0 0 0 28-28v-20h16a8.008 8.008 0 0 0 5.66-2.34l21.65-21.66h28.69v8a8 8 0 0 0 8 8h40a8 8 0 0 0 8-8v-144a8 8 0 0 0 -8-8zm-136 188a12.01 12.01 0 0 1 -12 12h-312a12.01 12.01 0 0 1 -12-12v-4h336zm0-20h-336v-32h336zm0-48h-336v-148a12.01 12.01 0 0 1 12-12h312a12.01 12.01 0 0 1 12 12v20h-44a28 28 0 0 0 0 56h44zm88 8h-32a8.008 8.008 0 0 0 -5.66 2.34l-21.65 21.66h-12.69v-80.77a27.833 27.833 0 0 0 20.36 8.77h11.64a8 8 0 0 0 0-16h-11.64a11.928 11.928 0 0 1 -10.73-6.63l-10.47-20.95a8.011 8.011 0 0 0 -7.16-4.42h-52a12 12 0 0 1 0-24h72.69l21.65 21.66a8.008 8.008 0 0 0 5.66 2.34h32zm40 16h-24v-128h24z"/><path d="m48 216h80a8 8 0 0 0 8-8v-48a8 8 0 0 0 -8-8h-80a8 8 0 0 0 -8 8v48a8 8 0 0 0 8 8zm8-48h64v32h-64z"/><path d="m152 168h64a8 8 0 0 0 0-16h-64a8 8 0 0 0 0 16z"/><path d="m152 192h32a8 8 0 0 0 0-16h-32a8 8 0 0 0 0 16z"/></g></svg>