<svg height="512" viewBox="0 0 512 512" width="512" xmlns="http://www.w3.org/2000/svg"><g><path d="m408 8h-304a8 8 0 0 0 -8 8v480a8 8 0 0 0 8 8h304a8 8 0 0 0 8-8v-480a8 8 0 0 0 -8-8zm-32 480h-240v-440h240zm24 0h-8v-448a8 8 0 0 0 -8-8h-256a8 8 0 0 0 -8 8v448h-8v-464h288z"/><path d="m360 184h-80a8 8 0 0 0 -8 8v112h-8a8 8 0 0 0 0 16h8v32a8 8 0 0 0 8 8h80a8 8 0 0 0 8-8v-160a8 8 0 0 0 -8-8zm-8 160h-64v-24h9.38a24 24 0 1 0 0-16h-9.38v-104h64zm-40-32a8 8 0 1 1 8 8 8.011 8.011 0 0 1 -8-8z"/><path d="m336 208h-32a8 8 0 0 0 -8 8v48a8 8 0 0 0 8 8h32a8 8 0 0 0 8-8v-48a8 8 0 0 0 -8-8zm-8 48h-16v-32h16z"/><path d="m280 88a24 24 0 1 0 -24 24 24.027 24.027 0 0 0 24-24zm-32 0a8 8 0 1 1 8 8 8.009 8.009 0 0 1 -8-8z"/></g></svg>