<svg height="512" viewBox="0 0 512 512" width="512" xmlns="http://www.w3.org/2000/svg"><path d="m496 264h-24v-148a28.031 28.031 0 0 0 -28-28h-376a28.031 28.031 0 0 0 -28 28v148h-24a8 8 0 0 0 -8 8v96a8 8 0 0 0 8 8v16a8 8 0 0 0 8 8h8v16a8 8 0 0 0 8 8h24a8 8 0 0 0 7.59-5.47l6.18-18.53h355.46l6.18 18.53a8 8 0 0 0 7.59 5.47h24a8 8 0 0 0 8-8v-16h9a8 8 0 0 0 8-8v-16a8 8 0 0 0 8-8v-96a8 8 0 0 0 -8-8zm-440-148a12.01 12.01 0 0 1 12-12h376a12.01 12.01 0 0 1 12 12v148h-40v-36a28.031 28.031 0 0 0 -28-28h-88a28.031 28.031 0 0 0 -28 28v36h-32v-36a28.031 28.031 0 0 0 -28-28h-88a28.031 28.031 0 0 0 -28 28v36h-40zm344 112v36h-112v-36a12.01 12.01 0 0 1 12-12h88a12.01 12.01 0 0 1 12 12zm-176 0v36h-112v-36a12.01 12.01 0 0 1 12-12h88a12.01 12.01 0 0 1 12 12zm-165.77 180h-10.23v-8h12.9zm404.77 0h-10.23l-2.67-8h12.9zm17-24h-448v-8h448zm8-24h-464v-80h464z"/></svg>