<svg height="512" viewBox="0 0 512 512" width="512" xmlns="http://www.w3.org/2000/svg"><path d="m496 216h-16v-24a8 8 0 0 0 -8-8h-40v-32a8 8 0 0 0 -8-8h-64a8 8 0 0 0 -8 8v72h-192v-72a8 8 0 0 0 -8-8h-64a8 8 0 0 0 -8 8v32h-40a8 8 0 0 0 -8 8v26h-16a8 8 0 0 0 -8 8v62a8 8 0 0 0 8 8h16v24a8 8 0 0 0 8 8h40v32a8 8 0 0 0 8 8h64a8 8 0 0 0 8-8v-72h192v72a8 8 0 0 0 8 8h64a8 8 0 0 0 8-8v-32h40a8 8 0 0 0 8-8v-26h16a8 8 0 0 0 8-8v-62a8 8 0 0 0 -8-8zm-464 64h-8v-46h8zm48 32h-32v-112h32zm64 40h-48v-192h48zm208-80h-192v-32h192zm64 80h-48v-192h48zm48-40h-32v-112h32zm24-34h-8v-46h8z"/></svg>