<?xml version="1.0" encoding="UTF-8"?>
<svg xmlns="http://www.w3.org/2000/svg" width="512" height="512" viewBox="0 0 512 512"><g><circle cx="200" cy="48" r="8"/><path d="M120,224V352a8,8,0,0,0,8,8H272a8,8,0,0,0,8-8V224a8,8,0,0,0-8-8H128A8,8,0,0,0,120,224Zm16,8H264V344H136Z"/><path d="M423.89,494.68l-16-96A8,8,0,0,0,400,392V112a48.051,48.051,0,0,0-48-48H236.65A39.98,39.98,0,0,0,200,8H112a24,24,0,0,0,0,48h48.8a39.906,39.906,0,0,0,9.34,18.57A7.932,7.932,0,0,0,168,80v28.67A112.193,112.193,0,0,0,88,216V456a48.051,48.051,0,0,0,48,48H264a48.051,48.051,0,0,0,48-48V216a112.176,112.176,0,0,0-70.44-104H340a12.01,12.01,0,0,1,12,12V392a8,8,0,0,0-7.89,6.68l-16,96A8.007,8.007,0,0,0,336,504h80a8.007,8.007,0,0,0,7.89-9.32ZM168,40H112a8,8,0,1,1,0-16h88a24,24,0,1,1-24,24A8,8,0,0,0,168,40Zm48,48v16H184V88Zm80,368a32.036,32.036,0,0,1-32,32H136a32.036,32.036,0,0,1-32-32V432H296Zm0-40H104V400H296Zm0-200V384H104V216a96,96,0,0,1,192,0ZM340,96H232V80H352a32.036,32.036,0,0,1,32,32V392H368V124A28.031,28.031,0,0,0,340,96Zm5.44,392,13.34-80h34.44l13.34,80Z"/></g></svg>
