<?xml version="1.0" encoding="UTF-8"?>
<svg xmlns="http://www.w3.org/2000/svg" width="512" height="512" viewBox="0 0 512 512"><path d="M496,104H480V72a8,8,0,0,0-8-8H424a8,8,0,0,0-8,8v32H376V56h8a8,8,0,0,0,8-8V28A20.02,20.02,0,0,0,372,8H140a20.02,20.02,0,0,0-20,20V48a8,8,0,0,0,8,8h8v48H96V72a8,8,0,0,0-8-8H40a8,8,0,0,0-8,8v32H16a8,8,0,0,0-8,8v32a8,8,0,0,0,8,8H32v32a8,8,0,0,0,8,8H88a8,8,0,0,0,8-8V152h40V344H111.23a47.925,47.925,0,0,0-46.56,36.36l-.43,1.7A8,8,0,0,0,72,392h64v64H63.23a47.925,47.925,0,0,0-46.56,36.36l-.43,1.7A8,8,0,0,0,24,504H488a8,8,0,0,0,7.76-9.94l-.43-1.7A47.925,47.925,0,0,0,448.77,456H376V392h64a8,8,0,0,0,7.7-10.17l-.79-2.83a48.172,48.172,0,0,0-46.21-35H376V152h40v32a8,8,0,0,0,8,8h48a8,8,0,0,0,8-8V152h16a8,8,0,0,0,8-8V112A8,8,0,0,0,496,104ZM32,136H24V120h8Zm48,40H48V80H80ZM136,28a4,4,0,0,1,4-4H372a4,4,0,0,1,4,4V40H136ZM360,56v48h-8V56Zm-24,0v48H176V56ZM160,56v48h-8V56ZM448.77,472a31.96,31.96,0,0,1,27.72,16H35.51a31.96,31.96,0,0,1,27.72-16ZM152,456V392h8v64Zm24,0V392H336v64Zm176,0V392h8v64Zm48.7-96a32.141,32.141,0,0,1,27.7,16H83.51a31.96,31.96,0,0,1,27.72-16ZM152,344V152h8V344Zm24,0V152H336V344Zm176,0V152h8V344Zm64-208H96V120H416Zm48,40H432V80h32Zm24-40h-8V120h8Z"/></svg>
