<svg height="512" viewBox="0 0 512 512" width="512" xmlns="http://www.w3.org/2000/svg"><path d="m496 296h-200v-24a8 8 0 0 0 -8-8h-24v-24.57a56 56 0 1 0 -64-55.43 8 8 0 0 0 16 0 40 40 0 1 1 40 40 8 8 0 0 0 -8 8v32h-24a8 8 0 0 0 -8 8v24h-200a8 8 0 0 0 -8 8v48a8 8 0 0 0 8 8h48v16a8 8 0 0 0 8 8h32a8 8 0 0 0 8-8v-16h288v16a8 8 0 0 0 8 8h32a8 8 0 0 0 8-8v-16h48a8 8 0 0 0 8-8v-48a8 8 0 0 0 -8-8zm-264-16h48v16h-48zm-136 88h-16v-32h16zm336 0h-16v-32h16zm56-24h-40v-16a8 8 0 0 0 -8-8h-32a8 8 0 0 0 -8 8v16h-288v-16a8 8 0 0 0 -8-8h-32a8 8 0 0 0 -8 8v16h-40v-32h464z"/></svg>