<svg height="512" viewBox="0 0 512 512" width="512" xmlns="http://www.w3.org/2000/svg"><path d="m496 408h-64v-24a8 8 0 0 0 -8-8h-144v-16h200a8 8 0 0 0 8-8v-32a231.974 231.974 0 0 0 -224-231.85v-8.15h32a8 8 0 0 0 8-8v-32a8 8 0 0 0 -8-8h-80a8 8 0 0 0 -8 8v32a8 8 0 0 0 8 8h32v8.15a231.974 231.974 0 0 0 -224 231.85v32a8 8 0 0 0 8 8h200v16h-144a8 8 0 0 0 -8 8v24h-64a8 8 0 0 0 -8 8v40a8 8 0 0 0 8 8h480a8 8 0 0 0 8-8v-40a8 8 0 0 0 -8-8zm-272-344v-16h64v16zm-184 280v-24a216.007 216.007 0 0 1 368.74-152.74 214.619 214.619 0 0 1 63.26 152.74v24zm224 16v16h-16v-16zm-168 32h320v16h-320zm392 56h-464v-24h464z"/></svg>