<svg height="512" viewBox="0 0 512 512" width="512" xmlns="http://www.w3.org/2000/svg"><g><path d="m232 448a8 8 0 0 0 8-8v-16a8 8 0 0 0 -16 0v16a8 8 0 0 0 8 8z"/><path d="m280 448a8 8 0 0 0 8-8v-16a8 8 0 0 0 -16 0v16a8 8 0 0 0 8 8z"/><path d="m240 264h-80a8 8 0 0 0 -8 8v64a8 8 0 0 0 8 8h80a8 8 0 0 0 8-8v-64a8 8 0 0 0 -8-8zm-8 64h-64v-48h64z"/><path d="m352 264h-80a8 8 0 0 0 -8 8v64a8 8 0 0 0 8 8h80a8 8 0 0 0 8-8v-64a8 8 0 0 0 -8-8zm-8 64h-64v-48h64z"/><path d="m240 176h-80a8 8 0 0 0 -8 8v64a8 8 0 0 0 8 8h80a8 8 0 0 0 8-8v-64a8 8 0 0 0 -8-8zm-8 64h-64v-48h64z"/><path d="m352 176h-80a8 8 0 0 0 -8 8v64a8 8 0 0 0 8 8h80a8 8 0 0 0 8-8v-64a8 8 0 0 0 -8-8zm-8 64h-64v-48h64z"/><path d="m240 88h-80a8 8 0 0 0 -8 8v64a8 8 0 0 0 8 8h80a8 8 0 0 0 8-8v-64a8 8 0 0 0 -8-8zm-8 64h-64v-48h64z"/><path d="m264 96v64a8 8 0 0 0 8 8h80a8 8 0 0 0 8-8v-64a8 8 0 0 0 -8-8h-80a8 8 0 0 0 -8 8zm16 8h64v48h-64z"/><path d="m496 152h-112v-88a8 8 0 0 0 -8-8h-32v-40a8 8 0 0 0 -8-8h-160a8 8 0 0 0 -8 8v40h-32a8 8 0 0 0 -8 8v88h-112a8 8 0 0 0 -8 8v336a8 8 0 0 0 8 8h480a8 8 0 0 0 8-8v-336a8 8 0 0 0 -8-8zm-472 40h72v48h-72zm0 88h72v48h-72zm0 88h72v48h-72zm104 120h-104v-56h80a8 8 0 0 0 8-8v-64a8 8 0 0 0 -8-8h-80v-8h80a8 8 0 0 0 8-8v-64a8 8 0 0 0 -8-8h-80v-8h80a8 8 0 0 0 8-8v-64a8 8 0 0 0 -8-8h-80v-8h104zm56-464h144v32h-144zm64 464h-48v-112h48zm64 0h-48v-112h48zm56 0h-40v-120a8 8 0 0 0 -8-8h-128a8 8 0 0 0 -8 8v120h-40v-416h224zm120-72h-72v-48h72zm0-88h-72v-48h72zm0-88h-72v-48h72zm0-64h-80a8 8 0 0 0 -8 8v64a8 8 0 0 0 8 8h80v8h-80a8 8 0 0 0 -8 8v64a8 8 0 0 0 8 8h80v8h-80a8 8 0 0 0 -8 8v64a8 8 0 0 0 8 8h80v56h-104v-320h104z"/></g></svg>