<svg height="512" viewBox="0 0 512 512" width="512" xmlns="http://www.w3.org/2000/svg"><g><path d="m72 296h48a8 8 0 0 0 8-8v-64a8 8 0 0 0 -8-8h-48a8 8 0 0 0 -8 8v64a8 8 0 0 0 8 8zm8-16v-24h32v24zm32-48v8h-32v-8z"/><path d="m232 296h48a8 8 0 0 0 8-8v-64a8 8 0 0 0 -8-8h-48a8 8 0 0 0 -8 8v64a8 8 0 0 0 8 8zm8-16v-24h32v24zm32-48v8h-32v-8z"/><path d="m152 296h48a8 8 0 0 0 8-8v-64a8 8 0 0 0 -8-8h-48a8 8 0 0 0 -8 8v64a8 8 0 0 0 8 8zm8-16v-24h32v24zm32-48v8h-32v-8z"/><path d="m392 296h48a8 8 0 0 0 8-8v-64a8 8 0 0 0 -8-8h-48a8 8 0 0 0 -8 8v64a8 8 0 0 0 8 8zm8-16v-24h32v24zm32-48v8h-32v-8z"/><path d="m72 448h64a8 8 0 0 0 8-8v-96a8 8 0 0 0 -8-8h-64a8 8 0 0 0 -8 8v96a8 8 0 0 0 8 8zm8-16v-56h48v56zm48-80v8h-48v-8z"/><path d="m368 440a8 8 0 0 0 8 8h64a8 8 0 0 0 8-8v-96a8 8 0 0 0 -8-8h-64a8 8 0 0 0 -8 8zm16-8v-56h48v56zm48-80v8h-48v-8z"/><path d="m72 144h48a8 8 0 0 0 8-8v-64a8 8 0 0 0 -8-8h-48a8 8 0 0 0 -8 8v64a8 8 0 0 0 8 8zm8-16v-24h32v24zm32-48v8h-32v-8z"/><path d="m232 144h48a8 8 0 0 0 8-8v-64a8 8 0 0 0 -8-8h-48a8 8 0 0 0 -8 8v64a8 8 0 0 0 8 8zm8-16v-24h32v24zm32-48v8h-32v-8z"/><path d="m152 144h48a8 8 0 0 0 8-8v-64a8 8 0 0 0 -8-8h-48a8 8 0 0 0 -8 8v64a8 8 0 0 0 8 8zm8-16v-24h32v24zm32-48v8h-32v-8z"/><path d="m392 144h48a8 8 0 0 0 8-8v-64a8 8 0 0 0 -8-8h-48a8 8 0 0 0 -8 8v64a8 8 0 0 0 8 8zm8-16v-24h32v24zm32-48v8h-32v-8z"/><path d="m312 144h48a8 8 0 0 0 8-8v-64a8 8 0 0 0 -8-8h-48a8 8 0 0 0 -8 8v64a8 8 0 0 0 8 8zm8-16v-24h32v24zm32-48v8h-32v-8z"/><path d="m496 56a8 8 0 0 0 8-8v-32a8 8 0 0 0 -8-8h-480a8 8 0 0 0 -8 8v32a8 8 0 0 0 8 8h16v96h-16a8 8 0 0 0 -8 8v32a8 8 0 0 0 8 8h16v264h-16a8 8 0 0 0 -8 8v24a8 8 0 0 0 8 8h480a8 8 0 0 0 8-8v-24a8 8 0 0 0 -8-8h-16v-264h16a8 8 0 0 0 8-8v-32a8 8 0 0 0 -8-8h-16v-96zm-8 424v8h-464v-8zm-192-112h-80a8 8 0 0 0 -8 8v88h-8v-104h112v104h-8v-88a8 8 0 0 0 -8-8zm-8 16v80h-24v-80zm-40 0v80h-24v-80zm-64-40v-16h144v16zm144 16h8a8 8 0 0 0 8-8v-32a8 8 0 0 0 -8-8h-160a8 8 0 0 0 -8 8v32a8 8 0 0 0 8 8h8v104h-136v-264h416v264h-136zm160-192v16h-464v-16zm-440-16v-96h416v96zm-24-112v-16h464v16z"/><path d="m360 216h-48a8 8 0 0 0 -8 8v64a8 8 0 0 0 8 8h48a8 8 0 0 0 8-8v-64a8 8 0 0 0 -8-8zm-8 64h-32v-24h32zm0-40h-32v-8h32z"/></g></svg>