<svg height="512" viewBox="0 0 512 512" width="512" xmlns="http://www.w3.org/2000/svg"><path d="m496 8h-480a8 8 0 0 0 -8 8v32a8 8 0 0 0 8 8h24v272a48.051 48.051 0 0 0 48 48h244.72l3.29 56.47a8 8 0 0 0 7.99 7.53v24a8 8 0 0 0 8 8h8v24a8 8 0 0 0 16 0v-24h8a8 8 0 0 0 8-8v-24a8 8 0 0 0 7.99-7.59l2.92-56.41h21.09a48.051 48.051 0 0 0 48-48v-272h24a8 8 0 0 0 8-8v-32a8 8 0 0 0 -8-8zm-120 448h-16v-16h16zm8.4-32h-32.85l-6.82-117.09a55.773 55.773 0 0 0 45.71.38zm-16.4-128a40.069 40.069 0 0 1 -39.2-32h78.4a40.069 40.069 0 0 1 -39.2 32zm-39.2-48a40.01 40.01 0 0 1 78.4 0zm127.2 80a32.036 32.036 0 0 1 -32 32h-20.26l3.3-63.91a56 56 0 1 0 -79.03-.94l3.78 64.85h-243.79a32.03 32.03 0 0 1 -32-32v-272h400zm32-288h-464v-16h464z"/></svg>