<svg height="512" viewBox="0 0 512 512" width="512" xmlns="http://www.w3.org/2000/svg"><path d="m388 104h-68v-64a32.042 32.042 0 0 0 -32-32h-160a32.042 32.042 0 0 0 -32 32v432a32.042 32.042 0 0 0 32 32h160a32.042 32.042 0 0 0 32-32v-64h40a24 24 0 0 0 0-48h-40v-112h68a28.031 28.031 0 0 0 28-28v-88a28.031 28.031 0 0 0 -28-28zm-84 368a16.021 16.021 0 0 1 -16 16h-160a16.021 16.021 0 0 1 -16-16v-432a16.021 16.021 0 0 1 16-16h160a16.021 16.021 0 0 1 16 16v64h-16v-40a8 8 0 0 0 -8-8h-144a8 8 0 0 0 -8 8v224a8 8 0 0 0 8 8h144a8 8 0 0 0 8-8v-40h16v112h-64.02a40 40 0 1 0 0 48h64.02zm-68-224h36v32h-128v-208h128v32h-36a28.031 28.031 0 0 0 -28 28v88a28.031 28.031 0 0 0 28 28zm-4 136a24 24 0 1 1 -24-24 24.032 24.032 0 0 1 24 24zm128-8a8 8 0 0 1 0 16h-112.8a40.4 40.4 0 0 0 0-16zm40-156a12.01 12.01 0 0 1 -12 12h-152a12.01 12.01 0 0 1 -12-12v-36h176zm0-52h-176v-16h176zm0-32h-176v-4a12.01 12.01 0 0 1 12-12h152a12.01 12.01 0 0 1 12 12z"/></svg>