<svg height="512" viewBox="0 0 512 512" width="512" xmlns="http://www.w3.org/2000/svg"><g><path d="m143.18 226.177a19.837 19.837 0 0 0 13.059-4.865 152.02 152.02 0 0 1 199.521 0 20 20 0 0 0 26.24-30.195 192.019 192.019 0 0 0 -251.99 0 19.992 19.992 0 0 0 13.175 35.06zm-4.022-20.143a3.922 3.922 0 0 1 1.35-2.846 176.017 176.017 0 0 1 230.984 0 3.922 3.922 0 0 1 1.35 2.846 4 4 0 0 1 -6.577 3.209 168.021 168.021 0 0 0 -220.53 0 4 4 0 0 1 -6.577-3.209z"/><path d="m341.669 230.372a136.009 136.009 0 0 0 -171.338 0 20 20 0 1 0 25.141 31.109 96.02 96.02 0 0 1 121.057 0 19.989 19.989 0 0 0 32.536-16.573 20.093 20.093 0 0 0 -7.396-14.536zm-9.744 18.389a3.951 3.951 0 0 1 -5.3.306 112.019 112.019 0 0 0 -141.247 0 3.989 3.989 0 0 1 -6.463-3.331 4.015 4.015 0 0 1 1.5-2.942 120.008 120.008 0 0 1 151.171 0 4.014 4.014 0 0 1 1.5 2.941 3.945 3.945 0 0 1 -1.161 3.026z"/><path d="m256 256a32 32 0 1 0 32 32 32.036 32.036 0 0 0 -32-32zm0 48a16 16 0 1 1 16-16 16.019 16.019 0 0 1 -16 16z"/><path d="m432 344v-224a8 8 0 0 0 -8-8h-336a8 8 0 0 0 -8 8v224a8 8 0 0 0 8 8h336a8 8 0 0 0 8-8zm-16-8h-320v-208h320z"/><path d="m496 360h-40v-244a28.031 28.031 0 0 0 -28-28h-344a28.031 28.031 0 0 0 -28 28v244h-40a8 8 0 0 0 -8 8v28a28.031 28.031 0 0 0 28 28h440a28.031 28.031 0 0 0 28-28v-28a8 8 0 0 0 -8-8zm-424-244a12.01 12.01 0 0 1 12-12h344a12.01 12.01 0 0 1 12 12v244h-368zm212.9 260-2.67 8h-52.46l-2.67-8zm203.1 20a12.01 12.01 0 0 1 -12 12h-440a12.01 12.01 0 0 1 -12-12v-20h186.23l6.18 18.53a8 8 0 0 0 7.59 5.47h64a8 8 0 0 0 7.59-5.47l6.18-18.53h186.23z"/></g></svg>