<?xml version="1.0" encoding="UTF-8"?>
<svg xmlns="http://www.w3.org/2000/svg" width="512" height="512" viewBox="0 0 512 512"><g><path d="M412,136H100a28.031,28.031,0,0,0-28,28V476a28.031,28.031,0,0,0,28,28H412a28.031,28.031,0,0,0,28-28V164A28.031,28.031,0,0,0,412,136Zm12,340a12.01,12.01,0,0,1-12,12H100a12.01,12.01,0,0,1-12-12V164a12.01,12.01,0,0,1,12-12H412a12.01,12.01,0,0,1,12,12Z"/><path d="M296,208a40,40,0,1,0-40,40A40.045,40.045,0,0,0,296,208Zm-40,24a24,24,0,1,1,24-24A24.028,24.028,0,0,1,256,232Z"/><path d="M300,248H212a28.031,28.031,0,0,0-28,28v64a28.043,28.043,0,0,0,24,27.71V464a8,8,0,0,0,8,8h80a8,8,0,0,0,8-8V367.71A28.043,28.043,0,0,0,328,340V276A28.031,28.031,0,0,0,300,248ZM288,456H264V408a8,8,0,0,0-16,0v48H224V368h64Zm24-116a12.014,12.014,0,0,1-8,11.3V296a8,8,0,0,0-16,0v56H224V296a8,8,0,0,0-16,0v55.3a12.014,12.014,0,0,1-8-11.3V276a12.01,12.01,0,0,1,12-12h88a12.01,12.01,0,0,1,12,12Z"/><path d="M144,80h16v40a8,8,0,0,0,8,8h48a8,8,0,0,0,8-8V80h16a8,8,0,0,0,6.074-13.207l-48-56a8,8,0,0,0-12.148,0l-48,56A8,8,0,0,0,144,80Zm48-51.707L222.606,64H216a8,8,0,0,0-8,8v40H176V72a8,8,0,0,0-8-8h-6.606Z"/><path d="M313.926,125.207a8,8,0,0,0,12.148,0l48-56A8,8,0,0,0,368,56H352V16a8,8,0,0,0-8-8H296a8,8,0,0,0-8,8V56H272a8,8,0,0,0-6.074,13.207ZM296,72a8,8,0,0,0,8-8V24h32V64a8,8,0,0,0,8,8h6.606L320,107.707,289.394,72Z"/></g></svg>
