<?xml version="1.0" encoding="UTF-8"?>
<svg xmlns="http://www.w3.org/2000/svg" width="512" height="512" viewBox="0 0 512 512"><g><path d="M104,184H72a8,8,0,0,0-8,8V400a8,8,0,0,0,8,8h32a8,8,0,0,0,8-8V192A8,8,0,0,0,104,184ZM96,392H80V200H96Z"/><circle cx="48" cy="160" r="8"/><circle cx="48" cy="432" r="8"/><path d="M476,232H392V188a28.031,28.031,0,0,0-28-28H327.32A48.069,48.069,0,0,0,280,120H232V56h8a8,8,0,0,0,8-8V16a8,8,0,0,0-8-8H96a8,8,0,0,0-8,8V48a8,8,0,0,0,8,8h8v64H56A48.051,48.051,0,0,0,8,168V424a48.086,48.086,0,0,0,32,45.25V496a8,8,0,0,0,8,8H80a8,8,0,0,0,8-8V472h32v4a28.031,28.031,0,0,0,28,28H476a28.031,28.031,0,0,0,28-28V260A28.031,28.031,0,0,0,476,232Zm-76,16h16v80H400Zm-36-72a12.01,12.01,0,0,1,12,12v4H248v-4a12.01,12.01,0,0,1,12-12Zm12,32v24h-8V208Zm-24,0v24H328V208Zm-40,0v24H272V208Zm-56,0v24h-8V208ZM104,24H232V40H104ZM216,56v64h-8V56Zm-24,0v64H144V56Zm-64,0v64h-8V56ZM72,488H56V472H72Zm48-228V456H56a32.036,32.036,0,0,1-32-32V168a32.036,32.036,0,0,1,32-32H280a32.058,32.058,0,0,1,30.99,24H260a28.031,28.031,0,0,0-28,28v44H192V192a8,8,0,0,0-8-8H152a8,8,0,0,0-8,8v40.29A28.043,28.043,0,0,0,120,260Zm104-12v80H208V248Zm-48-48v32H160V200Zm16,288H148a12.01,12.01,0,0,1-12-12V260a12.01,12.01,0,0,1,12-12h44v80h-8a8,8,0,0,0-8,8v64a8,8,0,0,0,8,8h8Zm32,0H208V408h16Zm-32-96V344h48v48Zm192,96H240V408h8a8,8,0,0,0,8-8V336a8,8,0,0,0-8-8h-8V248H384v80h-8a8,8,0,0,0-8,8v64a8,8,0,0,0,8,8h8Zm32,0H400V408h16Zm-32-96V344h48v48Zm104,84a12.01,12.01,0,0,1-12,12H432V408h8a8,8,0,0,0,8-8V336a8,8,0,0,0-8-8h-8V248h44a12.01,12.01,0,0,1,12,12Z"/></g></svg>
