<svg height="512" viewBox="0 0 512 512" width="512" xmlns="http://www.w3.org/2000/svg"><path d="m496 320h-52.26a47.8 47.8 0 0 0 12.26-32v-144a48.051 48.051 0 0 0 -48-48h-40v-8a48.051 48.051 0 0 0 -48-48h-48a48.051 48.051 0 0 0 -48 48v8h-40a48.051 48.051 0 0 0 -48 48v144a47.8 47.8 0 0 0 12.26 32h-44.26v-264a8 8 0 0 0 -8-8h-80a8 8 0 0 0 -8 8v32a8 8 0 0 0 8 8h40v224h-8a8 8 0 0 0 -8 8v32a8 8 0 0 0 8 8h40v13.4a56 56 0 1 0 48 0v-13.4h272v13.4a56 56 0 1 0 48 0v-13.4h40a8 8 0 0 0 8-8v-32a8 8 0 0 0 -8-8zm-88-72a8 8 0 0 0 8-8v-48a8 8 0 0 0 -8-8v-72a32.03 32.03 0 0 1 32 32v144a32.03 32.03 0 0 1 -32 32zm-32-136h16v72h-16zm-8 88h32v32h-32zm24 48v72h-16v-72zm-152-160a32.03 32.03 0 0 1 32-32h48a32.03 32.03 0 0 1 32 32v8h-112zm-8 160a8 8 0 0 0 8-8v-48a8 8 0 0 0 -8-8v-72h128v72a8 8 0 0 0 -8 8v48a8 8 0 0 0 8 8v72h-128zm-32-136h16v72h-16zm-8 88h32v32h-32zm24 48v72h-16v-72zm-64-104a32.03 32.03 0 0 1 32-32v72a8 8 0 0 0 -8 8v48a8 8 0 0 0 8 8v72a32.03 32.03 0 0 1 -32-32zm-128-64v-16h64v256h-16v-232a8 8 0 0 0 -8-8zm128 352a40 40 0 1 1 -64-32v16a24 24 0 0 0 48 0v-16a40.084 40.084 0 0 1 16 32zm-48-16v-48h16v48a8 8 0 0 1 -16 0zm368 16a40 40 0 1 1 -64-32v16a24 24 0 0 0 48 0v-16a40.084 40.084 0 0 1 16 32zm-48-16v-48h16v48a8 8 0 0 1 -16 0zm64-64h-432v-16h432z"/></svg>