<svg height="512" viewBox="0 0 512 512" width="512" xmlns="http://www.w3.org/2000/svg"><g><path d="m368 120h-48v-64h8a8 8 0 0 0 8-8v-32a8 8 0 0 0 -8-8h-144a8 8 0 0 0 -8 8v32a8 8 0 0 0 8 8h8v64h-48a48.051 48.051 0 0 0 -48 48v288a48.051 48.051 0 0 0 48 48h224a48.051 48.051 0 0 0 48-48v-288a48.051 48.051 0 0 0 -48-48zm-176-96h128v16h-128zm112 32v64h-8v-64zm-24 0v64h-48v-64zm-64 0v64h-8v-64zm184 400a32.042 32.042 0 0 1 -32 32h-224a32.042 32.042 0 0 1 -32-32v-288a32.042 32.042 0 0 1 32-32h224a32.042 32.042 0 0 1 32 32z"/><path d="m272 184h-32a8 8 0 0 0 -8 8v240a8 8 0 0 0 8 8h32a8 8 0 0 0 8-8v-240a8 8 0 0 0 -8-8zm-8 240h-16v-224h16z"/><path d="m192 184h-32a8 8 0 0 0 -8 8v240a8 8 0 0 0 8 8h32a8 8 0 0 0 8-8v-240a8 8 0 0 0 -8-8zm-8 240h-16v-224h16z"/><path d="m352 184h-32a8 8 0 0 0 -8 8v240a8 8 0 0 0 8 8h32a8 8 0 0 0 8-8v-240a8 8 0 0 0 -8-8zm-8 240h-16v-224h16z"/><circle cx="136" cy="160" r="8"/><circle cx="376" cy="160" r="8"/><circle cx="136" cy="464" r="8"/><circle cx="376" cy="464" r="8"/></g></svg>