<?xml version="1.0" encoding="UTF-8"?>
<svg xmlns="http://www.w3.org/2000/svg" width="512" height="512" viewBox="0 0 512 512"><g><path d="M431.36,80.64A248,248,0,1,0,80.64,431.36,248,248,0,1,0,431.36,80.64ZM420.05,420.05A232,232,0,0,1,91.95,91.95a232,232,0,0,1,328.1,328.1Z"/><path d="M408.74,103.26A216.007,216.007,0,0,0,103.26,408.74,216.007,216.007,0,0,0,408.74,103.26ZM56,256C56,145.72,145.72,56,256,56a199.225,199.225,0,0,1,135.58,53.11L268.69,232H96a8,8,0,0,0-8,8v32a8,8,0,0,0,8,8H220.69L109.11,391.58A199.225,199.225,0,0,1,56,256Zm219.31-8H360v16H259.31Zm-22.62,0-16,16H136V248ZM120,248v16H104V248ZM256,456a199.225,199.225,0,0,1-135.58-53.11L243.31,280H416a8,8,0,0,0,8-8V240a8,8,0,0,0-8-8H291.31L402.89,120.42A199.225,199.225,0,0,1,456,256C456,366.28,366.28,456,256,456ZM376,264V248h32v16Z"/><path d="M120,224a8,8,0,0,0,8-8v-8a8.009,8.009,0,0,1,8-8h48a24,24,0,0,0,0-48H160a8,8,0,0,1,0-16h72a8,8,0,0,0,0-16H160a24,24,0,0,0,0,48h24a8,8,0,0,1,0,16H136a24.028,24.028,0,0,0-24,24v8A8,8,0,0,0,120,224Z"/></g></svg>
