<svg height="512" viewBox="0 0 512 512" width="512" xmlns="http://www.w3.org/2000/svg"><g><path d="m388 40h-92v-24a8 8 0 0 0 -8-8h-64a8 8 0 0 0 -8 8v24h-92a28.031 28.031 0 0 0 -28 28v328a28.031 28.031 0 0 0 28 28h92v24a8 8 0 0 0 8 8h8v40a8 8 0 0 0 8 8h32a8 8 0 0 0 8-8v-40h8a8 8 0 0 0 8-8v-24h92a28.031 28.031 0 0 0 28-28v-328a28.031 28.031 0 0 0 -28-28zm-156-16h48v16h-48zm32 464h-16v-32h16zm16-48h-48v-16h48zm120-44a12.01 12.01 0 0 1 -12 12h-264a12.01 12.01 0 0 1 -12-12v-328a12.01 12.01 0 0 1 12-12h264a12.01 12.01 0 0 1 12 12z"/><path d="m384 64h-256a8 8 0 0 0 -8 8v320a8 8 0 0 0 8 8h256a8 8 0 0 0 8-8v-320a8 8 0 0 0 -8-8zm-8 320h-240v-304h240z"/><circle cx="152" cy="96" r="8"/><circle cx="360" cy="96" r="8"/><circle cx="152" cy="368" r="8"/><circle cx="360" cy="368" r="8"/><path d="m260 120h-68a8 8 0 0 0 -8 8v208a8 8 0 0 0 8 8h32a8 8 0 0 0 8-8v-80h28a68 68 0 0 0 0-136zm0 120h-36a8 8 0 0 0 -8 8v80h-16v-192h60a52 52 0 0 1 0 104z"/><path d="m260 152h-36a8 8 0 0 0 -8 8v56a8 8 0 0 0 8 8h36a36 36 0 0 0 0-72zm0 56h-28v-40h28a20 20 0 0 1 0 40z"/></g></svg>