<svg height="512" viewBox="0 0 512 512" width="512" xmlns="http://www.w3.org/2000/svg"><g><path d="m416 8h-240a8 8 0 0 0 -8 8v64h-72a8 8 0 0 0 -8 8v408a8 8 0 0 0 8 8h240a8 8 0 0 0 8-8v-64h72a8 8 0 0 0 8-8v-408a8 8 0 0 0 -8-8zm-88 480h-224v-392h224zm80-72h-64v-328a8 8 0 0 0 -8-8h-152v-56h224z"/><path d="m216 168a88 88 0 1 0 88 88 88.1 88.1 0 0 0 -88-88zm-71.54 96h23.73c.93 19.59 5.23 37.87 12.37 52.15.61 1.21 1.23 2.38 1.87 3.52a72.144 72.144 0 0 1 -37.97-55.67zm36.1-68.15c-7.14 14.28-11.44 32.56-12.37 52.15h-23.73a72.144 72.144 0 0 1 37.97-55.67c-.64 1.14-1.26 2.31-1.87 3.52zm27.44 129.51c-11.54-7.48-22.21-30.38-23.79-61.36h23.79zm0-77.36h-23.79c1.58-30.98 12.25-53.88 23.79-61.36zm79.54 0h-23.73c-.93-19.59-5.23-37.87-12.37-52.15-.61-1.21-1.23-2.38-1.87-3.52a72.144 72.144 0 0 1 37.97 55.67zm-63.54 77.36v-61.36h23.79c-1.58 30.98-12.25 53.88-23.79 61.36zm0-77.36v-61.36c11.54 7.48 22.21 30.38 23.79 61.36zm25.57 71.67c.64-1.14 1.26-2.31 1.87-3.52 7.14-14.28 11.44-32.56 12.37-52.15h23.73a72.144 72.144 0 0 1 -37.97 55.67z"/><path d="m288 368h-144a8 8 0 0 0 -8 8v64a8 8 0 0 0 8 8h144a8 8 0 0 0 8-8v-64a8 8 0 0 0 -8-8zm-8 64h-128v-48h128z"/></g></svg>