<svg height="512" viewBox="0 0 512 512" width="512" xmlns="http://www.w3.org/2000/svg"><g><path d="m256 8c-101.46 0-184 82.54-184 184 0 99.01 170.64 300.65 177.91 309.19a8 8 0 0 0 12.18 0c7.27-8.54 177.91-210.18 177.91-309.19 0-101.46-82.54-184-184-184zm0 475.5c-30.84-37.38-168-208.37-168-291.5 0-92.64 75.36-168 168-168s168 75.36 168 168c0 83.1-137.16 254.11-168 291.5z"/><path d="m256 49c-79.4 0-144 64.6-144 144s64.6 144 144 144 144-64.6 144-144-64.6-144-144-144zm0 272a128 128 0 1 1 128-128 128.144 128.144 0 0 1 -128 128z"/><path d="m344 152h-144v-24a8 8 0 0 0 -8-8h-24a8 8 0 0 0 -8 8v120a8 8 0 0 0 8 8h24a8 8 0 0 0 8-8v-24h112v24a8 8 0 0 0 8 8h24a8 8 0 0 0 8-8v-88a8 8 0 0 0 -8-8zm-8 88h-8v-24a8 8 0 0 0 -8-8h-128a8 8 0 0 0 -8 8v24h-8v-104h8v56a8 8 0 0 0 8 8h144zm0-56h-136v-16h136z"/></g></svg>