<svg height="512" viewBox="0 0 512 512" width="512" xmlns="http://www.w3.org/2000/svg"><g><path d="m256 40c-83.81 0-152 68.19-152 152s68.19 152 152 152 152-68.19 152-152-68.19-152-152-152zm0 288c-74.99 0-136-61.01-136-136s61.01-136 136-136 136 61.01 136 136-61.01 136-136 136z"/><path d="m440 192c0-101.46-82.54-184-184-184s-184 82.54-184 184c0 93.32 69.84 170.64 160 182.44v17.56h-8a8 8 0 0 0 -8 8v96a8 8 0 0 0 8 8h64a8 8 0 0 0 8-8v-96a8 8 0 0 0 -8-8h-8v-17.56c90.16-11.8 160-89.12 160-182.44zm-160 296h-48v-80h48zm-32-96v-16h16v16zm8-32c-92.64 0-168-75.36-168-168s75.36-168 168-168 168 75.36 168 168-75.36 168-168 168z"/><path d="m344 152h-144v-24a8 8 0 0 0 -8-8h-24a8 8 0 0 0 -8 8v120a8 8 0 0 0 8 8h24a8 8 0 0 0 8-8v-24h112v24a8 8 0 0 0 8 8h24a8 8 0 0 0 8-8v-88a8 8 0 0 0 -8-8zm-8 88h-8v-24a8 8 0 0 0 -8-8h-128a8 8 0 0 0 -8 8v24h-8v-104h8v56a8 8 0 0 0 8 8h144zm0-56h-136v-16h136z"/></g></svg>