<svg height="512" viewBox="0 0 512 512" width="512" xmlns="http://www.w3.org/2000/svg"><g><path d="m240 248h-32a8 8 0 0 0 0 16h8v56a64 64 0 0 1 -128 0v-56h8a8 8 0 0 0 0-16h-32a8 8 0 0 0 0 16h8v56a80 80 0 0 0 160 0v-56h8a8 8 0 0 0 0-16z"/><path d="m487.99 143.64a7.991 7.991 0 0 0 -7.99-7.64h-64v-40a88 88 0 0 0 -176 0v40h-64a8 8 0 0 0 -7.99 7.68l-2.6 64.32h-149.41a8 8 0 0 0 -8 8v260a28.031 28.031 0 0 0 28 28h460a8 8 0 0 0 7.99-8.36zm-231.99-47.64a72 72 0 0 1 144 0v40h-144zm24 380a12.01 12.01 0 0 1 -12 12h-232a12.01 12.01 0 0 1 -12-12v-252h256zm13.29 12a27.75 27.75 0 0 0 2.71-12v-260a8 8 0 0 0 -8-8h-106.58l2.26-56h56.32v16h-8a8 8 0 0 0 0 16h32a8 8 0 0 0 0-16h-8v-16h144v16h-8a8 8 0 0 0 0 16h32a8 8 0 0 0 0-16h-8v-16h56.36l15.27 336z"/></g></svg>