<svg height="512" viewBox="0 0 512 512" width="512" xmlns="http://www.w3.org/2000/svg"><g><path d="m496 288h-40v-200a80 80 0 0 0 -160 0v.68a48.069 48.069 0 0 0 -40 47.32v24a8 8 0 0 0 8 8h80a8 8 0 0 0 8-8v-24a48.069 48.069 0 0 0 -40-47.32v-.68a64 64 0 0 1 128 0v200h-184a8.008 8.008 0 0 0 -5.66 2.34l-29.65 29.66h-204.69a8 8 0 0 0 -8 8v24a8 8 0 0 0 8 8h16v56a56.086 56.086 0 0 0 48 55.42v24.58a8 8 0 0 0 8 8h24a8 8 0 0 0 7.76-6.06l6.49-25.94h259.5l6.49 25.94a8 8 0 0 0 7.76 6.06h24a8 8 0 0 0 8-8v-24.58a56.086 56.086 0 0 0 48-55.42v-88h16a8 8 0 0 0 8-8v-24a8 8 0 0 0 -8-8zm-160-136h-64v-8h64zm-1.01-24h-61.98a32.008 32.008 0 0 1 61.98 0zm-229.24 360h-9.75v-16h13.75zm310.25 0h-9.75l-4-16h13.75zm48-72a40.04 40.04 0 0 1 -40 40h-336a40.04 40.04 0 0 1 -40-40v-56h192a8.008 8.008 0 0 0 5.66-2.34l29.65-29.66h188.69zm24-104h-216a8.008 8.008 0 0 0 -5.66 2.34l-29.65 29.66h-212.69v-8h200a8.008 8.008 0 0 0 5.66-2.34l29.65-29.66h228.69z"/><path d="m304 216a8 8 0 0 0 8-8v-24a8 8 0 0 0 -16 0v24a8 8 0 0 0 8 8z"/><path d="m296 240a8 8 0 0 0 16 0v-8a8 8 0 0 0 -16 0z"/><path d="m344 216v-32a8 8 0 0 0 -16 0v32a8 8 0 0 0 16 0z"/><path d="m280 200v-8a8 8 0 0 0 -16 0v8a8 8 0 0 0 16 0z"/><path d="m104 305a24 24 0 1 0 -24-24 24.027 24.027 0 0 0 24 24zm0-32a8 8 0 1 1 -8 8 8.009 8.009 0 0 1 8-8z"/><path d="m176 289a32 32 0 1 0 -32-32 32.036 32.036 0 0 0 32 32zm0-48a16 16 0 1 1 -16 16 16.019 16.019 0 0 1 16-16z"/><path d="m120 232a24 24 0 1 0 -24-24 24.027 24.027 0 0 0 24 24zm0-32a8 8 0 1 1 -8 8 8.009 8.009 0 0 1 8-8z"/></g></svg>