<?xml version="1.0" encoding="UTF-8"?>
<svg xmlns="http://www.w3.org/2000/svg" width="512" height="512" viewBox="0 0 512 512"><g><path d="M334.82,216.21A109.6,109.6,0,0,0,257.06,184H256a63.987,63.987,0,1,1,62.96-75.59,24,24,0,0,0,47.22-8.6A111.809,111.809,0,0,0,256,8h-.39c-29.65.1-57.67,12.05-78.88,33.66A112.885,112.885,0,0,0,144,121.13V480a24.032,24.032,0,0,0,24,24H344a24.032,24.032,0,0,0,24-24V296A111.766,111.766,0,0,0,334.82,216.21ZM352,480a8.011,8.011,0,0,1-8,8H168a8.011,8.011,0,0,1-8-8V121.13a97.042,97.042,0,0,1,28.15-68.27C206.34,34.34,230.32,24.09,255.67,24H256a95.838,95.838,0,0,1,94.44,78.68,7.716,7.716,0,0,1-1.71,6.42,8.034,8.034,0,0,1-6.19,2.9,7.946,7.946,0,0,1-7.85-6.47A80,80,0,1,0,255.99,200h1.06a93.748,93.748,0,0,1,66.49,27.55A95.884,95.884,0,0,1,352,296Z"/><path d="M256,272a88,88,0,1,0,88,88A88.1,88.1,0,0,0,256,272Zm-72,88a71.947,71.947,0,0,1,116.91-56.22L199.78,404.91A71.686,71.686,0,0,1,184,360Zm72,72a71.686,71.686,0,0,1-44.91-15.78L312.22,315.09A71.947,71.947,0,0,1,256,432Z"/></g></svg>
