<svg height="512" viewBox="0 0 512 512" width="512" xmlns="http://www.w3.org/2000/svg"><g><path d="m472 40a31.876 31.876 0 0 0 -21.13 8h-389.74a32 32 0 1 0 0 48h42.87v56h-4a28.031 28.031 0 0 0 -28 28v264a28.031 28.031 0 0 0 28 28h312a28.031 28.031 0 0 0 28-28v-264a28.031 28.031 0 0 0 -28-28h-4v-56h42.87a31.99 31.99 0 1 0 21.13-56zm-432 48a16 16 0 1 1 16-16 16.021 16.021 0 0 1 -16 16zm372 80a12.01 12.01 0 0 1 12 12v264a12.01 12.01 0 0 1 -12 12h-312a12.01 12.01 0 0 1 -12-12v-264a12.01 12.01 0 0 1 12-12zm-292-16v-56h272v56zm321.01-72h-369.01v-16h369.01a32.188 32.188 0 0 0 0 16zm30.99 8a16 16 0 1 1 16-16 16.021 16.021 0 0 1 -16 16z"/><path d="m168 368h24a8 8 0 0 0 8-8v-24h112v24a8 8 0 0 0 8 8h24a8 8 0 0 0 8-8v-88a8 8 0 0 0 -8-8h-144v-24a8 8 0 0 0 -8-8h-24a8 8 0 0 0 -8 8v120a8 8 0 0 0 8 8zm32-88h136v16h-136zm-24-32h8v56a8 8 0 0 0 8 8h144v40h-8v-24a8 8 0 0 0 -8-8h-128a8 8 0 0 0 -8 8v24h-8z"/></g></svg>