<svg height="512" viewBox="0 0 512 512" width="512" xmlns="http://www.w3.org/2000/svg"><g><path d="m240 248h-24v-60a28.031 28.031 0 0 0 -28-28h-120a28.031 28.031 0 0 0 -28 28v60h-24a8 8 0 0 0 -8 8v48a8 8 0 0 0 8 8v16a8 8 0 0 0 8 8h8v16a8 8 0 0 0 8 8h24a8 8 0 0 0 7.59-5.47l6.18-18.53h99.46l6.18 18.53a8 8 0 0 0 7.59 5.47h24a8 8 0 0 0 8-8v-16h9a8 8 0 0 0 8-8v-16a8 8 0 0 0 8-8v-48a8 8 0 0 0 -8-8zm-184-60a12.01 12.01 0 0 1 12-12h120a12.01 12.01 0 0 1 12 12v60h-16v-20a28.031 28.031 0 0 0 -28-28h-56a28.031 28.031 0 0 0 -28 28v20h-16zm112 40v20h-80v-20a12.01 12.01 0 0 1 12-12h56a12.01 12.01 0 0 1 12 12zm-109.77 116h-10.23v-8h12.9zm148.77 0h-10.23l-2.67-8h12.9zm17-24h-192v-8h192zm8-24h-208v-32h208z"/><path d="m496 248h-24v-60a28.031 28.031 0 0 0 -28-28h-120a28.031 28.031 0 0 0 -28 28v60h-24a8 8 0 0 0 -8 8v48a8 8 0 0 0 8 8v16a8 8 0 0 0 8 8h8v16a8 8 0 0 0 8 8h24a8 8 0 0 0 7.59-5.47l6.18-18.53h99.46l6.18 18.53a8 8 0 0 0 7.59 5.47h24a8 8 0 0 0 8-8v-16h9a8 8 0 0 0 8-8v-16a8 8 0 0 0 8-8v-48a8 8 0 0 0 -8-8zm-184-60a12.01 12.01 0 0 1 12-12h120a12.01 12.01 0 0 1 12 12v60h-16v-20a28.031 28.031 0 0 0 -28-28h-56a28.031 28.031 0 0 0 -28 28v20h-16zm112 40v20h-80v-20a12.01 12.01 0 0 1 12-12h56a12.01 12.01 0 0 1 12 12zm-109.77 116h-10.23v-8h12.9zm148.77 0h-10.23l-2.67-8h12.9zm17-24h-192v-8h192zm8-24h-208v-32h208z"/></g></svg>