<svg height="512" viewBox="0 0 512 512" width="512" xmlns="http://www.w3.org/2000/svg"><g><path d="m318.23 35.38a96.116 96.116 0 0 0 -135.77 0l-28.28 28.29a7.991 7.991 0 0 0 -11.32 0l-33.94 33.94a8 8 0 0 0 0 11.31l-73.54 73.54a96 96 0 0 0 135.77 135.77l73.54-73.54a8 8 0 0 0 11.31 0l33.94-33.94a8 8 0 0 0 0-11.32l28.29-28.28a96.116 96.116 0 0 0 0-135.77zm-158.4 271.53a80 80 0 0 1 -113.13-113.14l73.54-73.53 113.13 113.13zm90.51-79.19-124.45-124.45 22.63-22.63 124.45 124.45zm28.29-39.6-113.14-113.14 28.28-28.28a80 80 0 0 1 113.14 113.13z"/><path d="m476.62 193.77a96.116 96.116 0 0 0 -135.77 0l-28.28 28.29a8.015 8.015 0 0 0 -11.32 0l-33.94 33.94a8 8 0 0 0 0 11.31l-73.54 73.54a96 96 0 0 0 135.77 135.77l73.54-73.54a8 8 0 0 0 11.31 0l33.94-33.94a7.991 7.991 0 0 0 0-11.32l28.29-28.28a96.116 96.116 0 0 0 0-135.77zm-158.39 271.53a80 80 0 0 1 -113.14-113.13l73.54-73.54 113.13 113.13zm90.5-79.19-124.45-124.45 22.63-22.63 124.45 124.45zm28.29-39.6-113.14-113.14 28.29-28.28a80 80 0 0 1 113.13 113.14z"/></g></svg>