<svg height="512" viewBox="0 0 512 512" width="512" xmlns="http://www.w3.org/2000/svg"><path d="m476 168h-12v-24a48.051 48.051 0 0 0 -48-48h-320a48.051 48.051 0 0 0 -48 48v24h-12a28.031 28.031 0 0 0 -28 28v160a28.031 28.031 0 0 0 28 28h4v24a8 8 0 0 0 8 8h23a8 8 0 0 0 7.7-5.83l7.36-26.17h339.88l7.36 26.17a8 8 0 0 0 7.7 5.83h23a8 8 0 0 0 8-8v-24h4a28.031 28.031 0 0 0 28-28v-160a28.031 28.031 0 0 0 -28-28zm-412-24a32.036 32.036 0 0 1 32-32h320a32.036 32.036 0 0 1 32 32v24h-12a28.031 28.031 0 0 0 -28 28v40.26a47.8 47.8 0 0 0 -32-12.26h-240a47.8 47.8 0 0 0 -32 12.26v-40.26a28.031 28.031 0 0 0 -28-28h-12zm344 128v16h-304v-16a32.036 32.036 0 0 1 32-32h240a32.036 32.036 0 0 1 32 32zm-343.06 128h-8.94v-16h13.44zm391.06 0h-8.94l-4.5-16h13.44zm32-44a12.01 12.01 0 0 1 -12 12h-440a12.01 12.01 0 0 1 -12-12v-160a12.01 12.01 0 0 1 12-12h40a12.01 12.01 0 0 1 12 12v100a8 8 0 0 0 8 8h320a8 8 0 0 0 8-8v-100a12.01 12.01 0 0 1 12-12h40a12.01 12.01 0 0 1 12 12z"/></svg>