<?xml version="1.0" encoding="UTF-8"?>
<svg xmlns="http://www.w3.org/2000/svg" width="512" height="512" viewBox="0 0 512 512"><path d="M496,168H328V120a72,72,0,1,0-144,0v48h-8V120a72,72,0,1,0-144,0v48H16a8,8,0,0,0-8,8V472a8,8,0,0,0,8,8H496a8,8,0,0,0,8-8V176A8,8,0,0,0,496,168ZM200,120a56,56,0,0,1,112,0V297.58q-7.935,1.17-16,2.74V120a40,40,0,0,0-80,0v48H200Zm80,0v48H232V120a24,24,0,0,1,48,0ZM176,184H280v8H176Zm0,24H280v8H176Zm0,24H280v16H176Zm0,32H280v8H176Zm0,24H280v15.81c-8.8,2.14-17.66,4.64-26.53,7.6A340.883,340.883,0,0,1,176,327.16ZM48,120a56,56,0,0,1,112,0V328.26q-8.175.39-16,.45V120a40,40,0,0,0-80,0v48H48Zm80,0v48H80V120a24,24,0,0,1,48,0ZM24,184H128V328.56c-13.06-.37-25.1-1.3-35.69-2.46A424.666,424.666,0,0,1,24,313.06ZM488,464H24V436.69a445.875,445.875,0,0,0,66.12,12.26,453.876,453.876,0,0,0,49.93,2.78c35.43,0,76.92-4.29,118.48-18.14,60.46-20.15,121.01-19.11,161.16-14.69A424.666,424.666,0,0,1,488,431.94Zm0-48.69a445.875,445.875,0,0,0-66.12-12.26c-41.85-4.65-105.04-5.76-168.41,15.36-60.46,20.15-121.01,19.11-161.16,14.69A424.666,424.666,0,0,1,24,420.06V401.69a445.875,445.875,0,0,0,66.12,12.26,453.876,453.876,0,0,0,49.93,2.78c35.43,0,76.92-4.29,118.48-18.14,60.46-20.15,121.01-19.11,161.16-14.69A424.666,424.666,0,0,1,488,396.94Zm0-35a445.875,445.875,0,0,0-66.12-12.26c-41.85-4.65-105.04-5.76-168.41,15.36-60.46,20.15-121.01,19.11-161.16,14.69A424.666,424.666,0,0,1,24,385.06V363.69a445.875,445.875,0,0,0,66.12,12.26,453.876,453.876,0,0,0,49.93,2.78c35.43,0,76.92-4.29,118.48-18.14,60.46-20.15,121.01-19.11,161.16-14.69A424.666,424.666,0,0,1,488,358.94Zm0-38a445.875,445.875,0,0,0-66.12-12.26c-41.85-4.65-105.04-5.76-168.41,15.36-60.46,20.15-121.01,19.11-161.16,14.69A424.666,424.666,0,0,1,24,347.06V329.69a445.875,445.875,0,0,0,66.12,12.26,453.876,453.876,0,0,0,49.93,2.78c35.43,0,76.92-4.29,118.48-18.14,60.46-20.15,121.01-19.11,161.16-14.69A424.666,424.666,0,0,1,488,324.94Zm0-34a445.875,445.875,0,0,0-66.12-12.26,439.948,439.948,0,0,0-93.88-.5V184H488Z"/></svg>
