<svg height="512" viewBox="0 0 512 512" width="512" xmlns="http://www.w3.org/2000/svg"><g><path d="m476 104h-204.29l54.76-75.29a8 8 0 1 0 -12.94-9.42l-57.53 79.11-57.53-79.11a8 8 0 1 0 -12.94 9.42l54.76 75.29h-204.29a28.031 28.031 0 0 0 -28 28v304a28.031 28.031 0 0 0 28 28h31.06l13.78 27.58a8.011 8.011 0 0 0 7.16 4.42h336a8.011 8.011 0 0 0 7.16-4.42l13.78-27.58h31.06a28.031 28.031 0 0 0 28-28v-304a28.031 28.031 0 0 0 -28-28zm-56.94 376h-326.12l-8-16h342.12zm68.94-44a12.01 12.01 0 0 1 -12 12h-440a12.01 12.01 0 0 1 -12-12v-304a12.01 12.01 0 0 1 12-12h440a12.01 12.01 0 0 1 12 12z"/><path d="m356 136h-288a28.032 28.032 0 0 0 -28 28v240a28.032 28.032 0 0 0 28 28h288a28.032 28.032 0 0 0 28-28v-240a28.032 28.032 0 0 0 -28-28zm12 268a12.013 12.013 0 0 1 -12 12h-288a12.013 12.013 0 0 1 -12-12v-240a12.013 12.013 0 0 1 12-12h288a12.013 12.013 0 0 1 12 12z"/><path d="m432 144a40 40 0 1 0 40 40 40.045 40.045 0 0 0 -40-40zm0 64a24 24 0 1 1 24-24 24.028 24.028 0 0 1 -24 24z"/><path d="m464 232h-64a8 8 0 0 0 -8 8v32a8 8 0 0 0 8 8h64a8 8 0 0 0 8-8v-32a8 8 0 0 0 -8-8zm-8 32h-48v-16h48z"/><path d="m464 288h-64a8 8 0 0 0 -8 8v120a8 8 0 0 0 8 8h64a8 8 0 0 0 8-8v-120a8 8 0 0 0 -8-8zm-8 120h-48v-104h48z"/></g></svg>