<?xml version="1.0" encoding="UTF-8"?>
<svg xmlns="http://www.w3.org/2000/svg" width="512" height="512" viewBox="0 0 512 512"><g><path d="M176,8H152a8,8,0,0,0-8,8v8H116A28.031,28.031,0,0,0,88,52v88a28.031,28.031,0,0,0,28,28h28v38.46l-15.43,38.57A7.925,7.925,0,0,0,128,248V496a8,8,0,0,0,8,8h40a8,8,0,0,0,8-8V16A8,8,0,0,0,176,8ZM116,152a12.01,12.01,0,0,1-12-12v-4h24a8,8,0,0,0,0-16H104V104h24a8,8,0,0,0,0-16H104V72h24a8,8,0,0,0,0-16H104V52a12.01,12.01,0,0,1,12-12h28V152Zm52,336H144V249.54l15.43-38.57A7.925,7.925,0,0,0,160,208V24h8Z"/><path d="M392,456h-.49L367.98,87.49A8,8,0,0,0,360,80h-8V64a8,8,0,0,0-8-8h-9.22l-6.89-41.32A8,8,0,0,0,320,8H272a8,8,0,0,0-7.89,6.68L257.22,56H248a8,8,0,0,0-8,8V80h-8a8,8,0,0,0-7.98,7.49L200.49,456H200a8,8,0,0,0-8,8v32a8,8,0,0,0,8,8H392a8,8,0,0,0,8-8V464A8,8,0,0,0,392,456ZM278.78,24h34.44l5.34,32H273.44ZM256,72h80v8H256ZM239.51,96H352.49l22.98,360H216.53ZM384,488H208V472H384Z"/></g></svg>
