<?xml version="1.0" encoding="UTF-8"?>
<svg xmlns="http://www.w3.org/2000/svg" width="512" height="512" viewBox="0 0 512 512"><path d="M484.05,164.06,264,98.05V70.99A32,32,0,1,0,224,40a8,8,0,0,0,16,0,16,16,0,1,1,16,16,8,8,0,0,0-8,8V98.05L27.95,164.06A27.831,27.831,0,0,0,8,190.88V196a28.031,28.031,0,0,0,28,28H88V472a32.036,32.036,0,0,0,32,32H304a32.036,32.036,0,0,0,32-32V440h56a32.036,32.036,0,0,0,32-32V224h52a28.031,28.031,0,0,0,28-28v-5.12A27.831,27.831,0,0,0,484.05,164.06ZM320,472a16.021,16.021,0,0,1-16,16H120a16.021,16.021,0,0,1-16-16v-8H320Zm0-256V448H104V216a32.036,32.036,0,0,1,32-32H332.26A47.8,47.8,0,0,0,320,216Zm88,192a16.021,16.021,0,0,1-16,16H336V224h72ZM337.01,208A32.058,32.058,0,0,1,368,184h8a32.058,32.058,0,0,1,30.99,24ZM488,196a12.01,12.01,0,0,1-12,12H423.32A48.069,48.069,0,0,0,376,168H136a48.069,48.069,0,0,0-47.32,40H36a12.01,12.01,0,0,1-12-12v-5.12a11.922,11.922,0,0,1,8.55-11.49L256,112.35l223.45,67.04A11.922,11.922,0,0,1,488,190.88Z"/></svg>
