<svg height="512" viewBox="0 0 512 512" width="512" xmlns="http://www.w3.org/2000/svg"><g><path d="m428 8h-344a28.031 28.031 0 0 0 -28 28v416a28.026 28.026 0 0 0 16 25.29v18.71a8 8 0 0 0 8 8h48a8 8 0 0 0 8-8v-16h240v16a8 8 0 0 0 8 8h48a8 8 0 0 0 8-8v-18.71a28.026 28.026 0 0 0 16-25.29v-416a28.031 28.031 0 0 0 -28-28zm-356 28a12.01 12.01 0 0 1 12-12h276v64h-288zm48 452h-32v-8h32zm304 0h-32v-8h32zm16-36a12.01 12.01 0 0 1 -12 12h-344a12.01 12.01 0 0 1 -12-12v-348h368zm0-364h-64v-64h52a12.01 12.01 0 0 1 12 12z"/><path d="m408 288c0-83.813-68.187-152-152-152s-152 68.187-152 152 68.187 152 152 152 152-68.187 152-152zm-152 136c-74.991 0-136-61.009-136-136s61.009-136 136-136 136 61.009 136 136-61.009 136-136 136z"/><path d="m256 168a120 120 0 1 0 120 120 120.136 120.136 0 0 0 -120-120zm0 16a104.131 104.131 0 0 1 103.853 98.474c-14.451 4.859-57.948 16.5-100.7-1.827-43.5-18.642-86.393-10.126-106.516-4.112a104.146 104.146 0 0 1 103.363-92.535zm0 208a104.131 104.131 0 0 1 -103.853-98.474c14.451-4.859 57.948-16.5 100.7 1.827a144.55 144.55 0 0 0 57.2 11.373 174.977 174.977 0 0 0 49.314-7.263 104.146 104.146 0 0 1 -103.361 92.537z"/><path d="m88 48h80a8 8 0 0 0 0-16h-80a8 8 0 0 0 0 16z"/><path d="m88 72h40a8 8 0 0 0 0-16h-40a8 8 0 0 0 0 16z"/><path d="m408 80a24 24 0 1 0 -24-24 24.027 24.027 0 0 0 24 24zm0-32a8 8 0 1 1 -8 8 8.009 8.009 0 0 1 8-8z"/><path d="m424 440h-56a8 8 0 0 0 0 16h56a8 8 0 0 0 0-16z"/><path d="m424 416h-24a8 8 0 0 0 0 16h24a8 8 0 0 0 0-16z"/></g></svg>